<svg xmlns="http://www.w3.org/2000/svg" xmlns:xlink="http://www.w3.org/1999/xlink"><symbol id="152" viewBox="0 0 152 152">
<rect width="152" height="152" fill="#EEEEEE"/>
<path d="M36.3022 95.8371C33.9077 92.3646 32.7628 88.2106 33.0481 84.0307V66.9694C32.746 62.7587 33.8736 58.5682 36.2557 55.0493C38.4097 52.3347 42.0899 50.985 47.2966 51.0001C52.5032 51.0153 56.0285 52.2058 57.8725 54.5716C60.121 57.5034 61.2181 61.1283 60.964 64.7856V68.7893H51.341V64.4444C51.328 63.3011 51.227 62.1605 51.0388 61.0321C50.9225 60.2153 50.5393 59.4572 49.9464 58.871C49.5804 58.5639 49.1555 58.3312 48.6965 58.1867C48.2375 58.0422 47.7537 57.9887 47.2733 58.0294C46.5835 57.9286 45.8786 58.0383 45.2548 58.3436C44.6309 58.6489 44.1183 59.1349 43.7867 59.7355C43.1756 61.333 42.9066 63.0365 42.9965 64.7401V86.3965C42.8904 88.1114 43.2011 89.8264 43.903 91.4011C44.2383 91.9692 44.736 92.429 45.3347 92.7241C45.9335 93.0191 46.6073 93.1365 47.2733 93.0618C47.9278 93.1523 48.5947 93.0384 49.1791 92.7361C49.7634 92.4338 50.2353 91.9586 50.5275 91.3784C51.0897 89.7778 51.3343 88.0869 51.248 86.3965V81.8468H60.871V85.7823C61.1543 89.4935 60.1467 93.1894 58.012 96.2693C55.9665 98.7716 52.4335 100 47.4128 100C42.3921 100 38.4639 98.6351 36.3022 95.8371Z" fill="#111111"/>
<path d="M73.4675 52H84.603L94 99H84.7439L83.076 88.6152H75.2764L73.397 98.9328H64L73.4675 52ZM82.0423 82.7067L79.0822 63.8171L76.1457 82.7067H82.0423Z" fill="#111111"/>
<path d="M100.556 59.0825H93V52H118V59.0825H110.537V99H100.533L100.556 59.0825Z" fill="#111111"/>
</symbol><symbol id="192" viewBox="0 0 192 192">
<rect width="192" height="192" fill="#EEEEEE"/>
<path d="M45.8556 121.057C42.8309 116.671 41.3846 111.424 41.745 106.144V84.593C41.3635 79.2742 42.7879 73.9809 45.7968 69.536C48.5176 66.107 53.1664 64.4021 59.7432 64.4212C66.3199 64.4404 70.773 65.9441 73.1023 68.9326C75.9425 72.6359 77.3283 77.2147 77.0072 81.8344V86.8918H64.8519V81.4034C64.8355 79.9593 64.7079 78.5185 64.4702 77.0932C64.3233 76.0614 63.8392 75.1038 63.0903 74.3634C62.628 73.9754 62.0912 73.6815 61.5115 73.499C60.9317 73.3164 60.3205 73.2489 59.7138 73.3002C58.8424 73.173 57.9521 73.3116 57.164 73.6972C56.376 74.0828 55.7285 74.6967 55.3097 75.4553C54.5377 77.4733 54.1979 79.6251 54.3114 81.777V109.132C54.1775 111.299 54.5699 113.465 55.4565 115.454C55.8801 116.172 56.5087 116.752 57.2651 117.125C58.0214 117.498 58.8725 117.646 59.7138 117.552C60.5405 117.666 61.3829 117.522 62.1211 117.14C62.8592 116.758 63.4553 116.158 63.8243 115.425C64.5345 113.404 64.8434 111.268 64.7345 109.132V103.385H76.8898V108.357C77.2476 113.044 75.9749 117.713 73.2784 121.603C70.6947 124.764 66.2319 126.316 59.89 126.316C53.5481 126.316 48.5861 124.592 45.8556 121.057Z" fill="#111111"/>
<path d="M92.801 65.6842H106.867L118.737 125.053H107.045L104.938 111.935H95.086L92.712 124.968H80.842L92.801 65.6842ZM103.632 104.472L99.8933 80.6111L96.1839 104.472H103.632Z" fill="#111111"/>
<path d="M127.018 74.6305H117.474V65.6842H149.053V74.6305H139.626V125.053H126.989L127.018 74.6305Z" fill="#111111"/>
</symbol><symbol id="256" viewBox="0 0 256 256">
<rect width="256" height="256" fill="#EEEEEE"/>
<path d="M61.1407 161.41C57.1078 155.561 55.1795 148.565 55.6601 141.525V112.791C55.1513 105.699 57.0505 98.6412 61.0624 92.7146C64.6901 88.1426 70.8885 85.8694 79.6575 85.8949C88.4266 85.9205 94.364 87.9255 97.4697 91.9101C101.257 96.8478 103.104 102.953 102.676 109.113V115.856H86.4692V108.538C86.4474 106.612 86.2773 104.691 85.9603 102.791C85.7644 101.415 85.1189 100.138 84.1204 99.1512C83.5039 98.6339 82.7883 98.242 82.0153 97.9986C81.2423 97.7552 80.4274 97.6651 79.6184 97.7336C78.4565 97.5639 77.2694 97.7488 76.2187 98.2629C75.168 98.7771 74.3047 99.5956 73.7462 100.607C72.7169 103.298 72.2639 106.167 72.4152 109.036V145.51C72.2366 148.398 72.7598 151.287 73.942 153.939C74.5068 154.896 75.345 155.67 76.3534 156.167C77.3619 156.664 78.4967 156.861 79.6184 156.736C80.7206 156.888 81.8439 156.696 82.8281 156.187C83.8123 155.678 84.607 154.878 85.0991 153.9C86.046 151.205 86.4579 148.357 86.3126 145.51V137.847H102.52V144.475C102.997 150.726 101.3 156.951 97.7046 162.138C94.2596 166.352 88.3092 168.421 79.8533 168.421C71.3974 168.421 64.7815 166.122 61.1407 161.41Z" fill="#111111"/>
<path d="M123.735 87.5789H142.489L158.316 166.737H142.727L139.917 149.247H126.781L123.616 166.624H107.79L123.735 87.5789ZM138.177 139.295L133.191 107.482L128.245 139.295H138.177Z" fill="#111111"/>
<path d="M169.357 99.5074H156.631V87.5789H198.737V99.5074H186.168V166.737H169.318L169.357 99.5074Z" fill="#111111"/>
</symbol><symbol id="512" viewBox="0 0 512 512">
<rect width="512" height="512" fill="#EEEEEE"/>
<path d="M122.282 322.82C114.216 311.123 110.359 297.131 111.32 283.051V225.581C110.303 211.398 114.101 197.282 122.125 185.429C129.38 176.285 141.777 171.739 159.315 171.79C176.853 171.841 188.728 175.851 194.94 183.82C202.513 193.696 206.209 205.906 205.353 218.225V231.711H172.939V217.076C172.895 213.225 172.555 209.383 171.921 205.582C171.529 202.83 170.238 200.277 168.241 198.302C167.008 197.268 165.577 196.484 164.031 195.997C162.485 195.51 160.855 195.33 159.237 195.467C156.913 195.128 154.539 195.498 152.438 196.526C150.336 197.554 148.61 199.191 147.493 201.214C145.434 206.595 144.528 212.334 144.831 218.072V291.02C144.474 296.796 145.52 302.573 147.884 307.877C149.014 309.791 150.69 311.34 152.707 312.334C154.724 313.327 156.994 313.723 159.237 313.471C161.441 313.776 163.688 313.392 165.656 312.374C167.625 311.356 169.214 309.755 170.198 307.801C172.092 302.41 172.916 296.714 172.625 291.02V275.695H205.04V288.951C205.994 301.452 202.6 313.901 195.409 324.275C188.519 332.704 176.619 336.842 159.707 336.842C142.795 336.842 129.563 332.245 122.282 322.82Z" fill="#111111"/>
<path d="M247.47 175.158H284.979L316.632 333.474H285.453L279.835 298.493H253.563L247.232 333.248H215.579L247.47 175.158ZM276.353 278.591L266.382 214.963L256.491 278.591H276.353Z" fill="#111111"/>
<path d="M338.714 199.015H313.263V175.158H397.473V199.015H372.336V333.474H338.636L338.714 199.015Z" fill="#111111"/>
</symbol></svg>