<svg width="256" height="256" viewBox="0 0 256 256" fill="none" xmlns="http://www.w3.org/2000/svg">
<rect width="256" height="256" fill="#EEEEEE"/>
<path d="M61.1407 161.41C57.1078 155.561 55.1795 148.565 55.6601 141.525V112.791C55.1513 105.699 57.0505 98.6412 61.0624 92.7146C64.6901 88.1426 70.8885 85.8694 79.6575 85.8949C88.4266 85.9205 94.364 87.9255 97.4697 91.9101C101.257 96.8478 103.104 102.953 102.676 109.113V115.856H86.4692V108.538C86.4474 106.612 86.2773 104.691 85.9603 102.791C85.7644 101.415 85.1189 100.138 84.1204 99.1512C83.5039 98.6339 82.7883 98.242 82.0153 97.9986C81.2423 97.7552 80.4274 97.6651 79.6184 97.7336C78.4565 97.5639 77.2694 97.7488 76.2187 98.2629C75.168 98.7771 74.3047 99.5956 73.7462 100.607C72.7169 103.298 72.2639 106.167 72.4152 109.036V145.51C72.2366 148.398 72.7598 151.287 73.942 153.939C74.5068 154.896 75.345 155.67 76.3534 156.167C77.3619 156.664 78.4967 156.861 79.6184 156.736C80.7206 156.888 81.8439 156.696 82.8281 156.187C83.8123 155.678 84.607 154.878 85.0991 153.9C86.046 151.205 86.4579 148.357 86.3126 145.51V137.847H102.52V144.475C102.997 150.726 101.3 156.951 97.7046 162.138C94.2596 166.352 88.3092 168.421 79.8533 168.421C71.3974 168.421 64.7815 166.122 61.1407 161.41Z" fill="#111111"/>
<path d="M123.735 87.5789H142.489L158.316 166.737H142.727L139.917 149.247H126.781L123.616 166.624H107.79L123.735 87.5789ZM138.177 139.295L133.191 107.482L128.245 139.295H138.177Z" fill="#111111"/>
<path d="M169.357 99.5074H156.631V87.5789H198.737V99.5074H186.168V166.737H169.318L169.357 99.5074Z" fill="#111111"/>
</svg>
